<svg width="799" height="554" viewBox="0 0 799 554" stroke="#EB5939" stroke-width="2" fill="none" xmlns="http://www.w3.org/2000/svg">
<g clip-path="url(#clip0_17_12)">
<path d="M676.869 245.141C775.031 308.224 737.491 435.684 619.036 447.807C551.65 454.79 465.112 445.047 399.501 430.453C397.604 430.039 401.005 431.605 399.501 430.453C397.998 429.301 400.299 432.104 399.501 430.453C398.704 428.802 399.428 432.261 399.501 430.453C398.572 432.044 399.575 428.645 399.501 430.453L436.378 368.992C434.116 370.083 437.584 366.907 436.378 368.992C433.846 368.71 438.641 367.9 436.378 368.992C485.502 374.327 548.522 375.818 597.73 374.72C644.274 373.661 675.922 344.721 633.055 307.53C631.092 305.705 627.912 303.979 625.124 303.751C588.979 300.338 541.546 304.34 511.488 297.867C364.372 266.208 390.624 81.5483 546.492 79.9007C603.817 79.3514 661.143 79.3907 718.467 80.0184C720.281 80.0302 729.752 79.4079 731.394 80.1224C733.035 80.8369 730.223 78.6139 731.392 79.9C730.91 78.278 732.561 81.1861 731.392 79.9C731.685 78.2396 731.874 81.5219 731.392 79.9C712.954 110.631 694.517 129.292 676.078 147.73C649.572 151.143 544.336 142.16 511.615 164.051C487.688 180.135 489.675 199.829 517.576 223.132C517.576 223.132 522.714 226.113 525.82 226.192L631.085 228.193C644.444 228.428 659.705 234.078 676.869 245.141Z" fill="#EB5939"/>
<path d="M194.806 373.085L301.163 374.915C288.87 395.185 270.432 412.989 251.993 436.377C232.941 436.377 190.532 437.188 135.216 437.188C133.146 437.049 69.3628 437.41 67.6092 436.377C65.8555 435.344 68.6358 438.062 67.6092 436.377C66.5825 434.692 67.6687 438.32 67.6092 436.377C66.6877 438.123 67.5496 434.434 67.6092 436.377L244.648 98.8614C252.258 84.7384 259.825 84.7776 267.35 98.9791C304.214 168.261 333.931 242.04 379.337 306C367.045 287.561 393.355 325.746 379.337 306C379.337 306 417.575 354.981 417.94 357.431C418.304 359.882 419.194 355.275 417.94 357.431L374.916 411.792C374.051 413.319 376.409 410.761 374.916 411.792C373.424 412.824 376.749 411.454 374.916 411.792C373.084 412.13 376.736 412.213 374.916 411.792C373.097 411.371 376.373 412.891 374.916 411.792C344.186 374.915 344.186 374.915 331.893 356.477C310.215 318.645 279.193 276.42 258.14 239.7C250.832 225.982 253.204 226.283 245.848 239.7L183.772 356.019C182.808 357.793 182.344 359.765 182.422 361.75C182.501 363.735 183.12 365.67 184.221 367.374C185.323 369.077 186.871 370.494 188.722 371.493C190.572 372.491 192.666 373.039 194.806 373.085Z" fill="#EB5939"/>
</g>
<defs>
<clipPath id="clip0_17_12">
<rect width="799" height="553.154" fill="white" />
</clipPath>
</defs>
</svg>